# xmcd
#
# Track frame offsets:
#	150
#	11570
#	29735
#	42805
#	57550
#	66487
#	81672
#	96135
#	103962
#	117395
#	130179
#	139805
#	157175
#	172457
#
# Disc length: 2434 seconds
#
# Revision: 1
# Processed by: cddbd v1.4PL0 Copyright (c) Steve Scherf et al.
# Submitted via: EasyCDDAExtractor 5.0.7
#
DISCID=dd09800e
DTITLE=Marley's Ghost - Seven Spacious Guys
DYEAR=1900
DGENRE=
TTITLE0=Sailing Away To The West
TTITLE1=Higher Ground
TTITLE2=Gabrielle
TTITLE3=Sugar Trade
TTITLE4=Oh, Mary Don't You Weep
TTITLE5=How Will I Ever Be Simple Again
TTITLE6=(Sierra) Peaks
TTITLE7=I Can See Your Aura
TTITLE8=Teach My Heart To Believe
TTITLE9=Hearts Aren't Made of Stone
TTITLE10=Turtle Dove
TTITLE11=Fiddler's Green
TTITLE12=Rock the Rose
TTITLE13=Them Beautiful Bottles
EXTD=
EXTT0=
EXTT1=
EXTT2=
EXTT3=
EXTT4=
EXTT5=
EXTT6=
EXTT7=
EXTT8=
EXTT9=
EXTT10=
EXTT11=
EXTT12=
EXTT13=
PLAYORDER=
